<mxfile host="www.draw.io" modified="2019-11-23T07:52:02.499Z" agent="Mozilla/5.0 (Windows NT 10.0; Win64; x64; rv:70.0) Gecko/20100101 Firefox/70.0" etag="F0LomhUaaGkeV41lGyR8" version="12.2.9" type="github" pages="1">
  <diagram id="--Rjlz9ZKGcgq2xkpwLX" name="第 1 页">
    <mxGraphModel dx="1038" dy="615" grid="0" gridSize="10" guides="0" tooltips="1" connect="1" arrows="1" fold="1" page="1" pageScale="1" pageWidth="1169" pageHeight="827" math="0" shadow="0">
      <root>
        <mxCell id="0"/>
        <mxCell id="1" parent="0"/>
        <mxCell id="PzeIHJAeP9Xw0wRFi0wk-70" style="edgeStyle=none;rounded=0;orthogonalLoop=1;jettySize=auto;html=1;exitX=0.5;exitY=1;exitDx=0;exitDy=0;entryX=1;entryY=0;entryDx=0;entryDy=0;endArrow=none;endFill=0;strokeColor=#000000;" parent="1" source="PzeIHJAeP9Xw0wRFi0wk-1" target="PzeIHJAeP9Xw0wRFi0wk-57" edge="1">
          <mxGeometry relative="1" as="geometry"/>
        </mxCell>
        <mxCell id="PzeIHJAeP9Xw0wRFi0wk-74" style="edgeStyle=none;rounded=0;orthogonalLoop=1;jettySize=auto;html=1;exitX=0.75;exitY=1;exitDx=0;exitDy=0;entryX=0;entryY=0;entryDx=0;entryDy=0;endArrow=none;endFill=0;strokeColor=#000000;" parent="1" source="PzeIHJAeP9Xw0wRFi0wk-1" target="PzeIHJAeP9Xw0wRFi0wk-73" edge="1">
          <mxGeometry relative="1" as="geometry"/>
        </mxCell>
        <mxCell id="PzeIHJAeP9Xw0wRFi0wk-1" value="仓库" style="rounded=0;whiteSpace=wrap;html=1;" parent="1" vertex="1">
          <mxGeometry x="532.5" y="183" width="70" height="50" as="geometry"/>
        </mxCell>
        <mxCell id="PzeIHJAeP9Xw0wRFi0wk-9" style="rounded=0;orthogonalLoop=1;jettySize=auto;html=1;strokeColor=#000000;endArrow=none;endFill=0;" parent="1" source="PzeIHJAeP9Xw0wRFi0wk-2" target="PzeIHJAeP9Xw0wRFi0wk-1" edge="1">
          <mxGeometry relative="1" as="geometry"/>
        </mxCell>
        <mxCell id="PzeIHJAeP9Xw0wRFi0wk-2" value="仓库号" style="ellipse;whiteSpace=wrap;html=1;" parent="1" vertex="1">
          <mxGeometry x="402.5" y="158" width="70" height="50" as="geometry"/>
        </mxCell>
        <mxCell id="PzeIHJAeP9Xw0wRFi0wk-3" value="电话号码" style="ellipse;whiteSpace=wrap;html=1;" parent="1" vertex="1">
          <mxGeometry x="532.5" y="93" width="70" height="50" as="geometry"/>
        </mxCell>
        <mxCell id="PzeIHJAeP9Xw0wRFi0wk-10" style="rounded=0;orthogonalLoop=1;jettySize=auto;html=1;strokeColor=#000000;endArrow=none;endFill=0;entryX=1;entryY=0.5;entryDx=0;entryDy=0;" parent="1" source="PzeIHJAeP9Xw0wRFi0wk-11" target="PzeIHJAeP9Xw0wRFi0wk-1" edge="1">
          <mxGeometry relative="1" as="geometry">
            <mxPoint x="632.5" y="225.5" as="targetPoint"/>
          </mxGeometry>
        </mxCell>
        <mxCell id="PzeIHJAeP9Xw0wRFi0wk-11" value="仓库面积" style="ellipse;whiteSpace=wrap;html=1;" parent="1" vertex="1">
          <mxGeometry x="662.5" y="153" width="70" height="50" as="geometry"/>
        </mxCell>
        <mxCell id="PzeIHJAeP9Xw0wRFi0wk-15" style="rounded=0;orthogonalLoop=1;jettySize=auto;html=1;strokeColor=#000000;endArrow=none;endFill=0;entryX=0.5;entryY=1;entryDx=0;entryDy=0;exitX=0.5;exitY=0;exitDx=0;exitDy=0;" parent="1" source="PzeIHJAeP9Xw0wRFi0wk-1" target="PzeIHJAeP9Xw0wRFi0wk-3" edge="1">
          <mxGeometry relative="1" as="geometry">
            <mxPoint x="612.5" y="218" as="targetPoint"/>
            <mxPoint x="685.003315819016" y="197.2847669088526" as="sourcePoint"/>
          </mxGeometry>
        </mxCell>
        <mxCell id="PzeIHJAeP9Xw0wRFi0wk-68" style="edgeStyle=none;rounded=0;orthogonalLoop=1;jettySize=auto;html=1;exitX=0.25;exitY=0;exitDx=0;exitDy=0;entryX=1;entryY=1;entryDx=0;entryDy=0;endArrow=none;endFill=0;strokeColor=#000000;" parent="1" source="PzeIHJAeP9Xw0wRFi0wk-16" target="PzeIHJAeP9Xw0wRFi0wk-58" edge="1">
          <mxGeometry relative="1" as="geometry"/>
        </mxCell>
        <mxCell id="PzeIHJAeP9Xw0wRFi0wk-16" value="零件" style="rounded=0;whiteSpace=wrap;html=1;" parent="1" vertex="1">
          <mxGeometry x="351" y="455" width="70" height="50" as="geometry"/>
        </mxCell>
        <mxCell id="PzeIHJAeP9Xw0wRFi0wk-17" style="rounded=0;orthogonalLoop=1;jettySize=auto;html=1;strokeColor=#000000;endArrow=none;endFill=0;" parent="1" source="PzeIHJAeP9Xw0wRFi0wk-18" target="PzeIHJAeP9Xw0wRFi0wk-16" edge="1">
          <mxGeometry relative="1" as="geometry"/>
        </mxCell>
        <mxCell id="PzeIHJAeP9Xw0wRFi0wk-18" value="零件号" style="ellipse;whiteSpace=wrap;html=1;" parent="1" vertex="1">
          <mxGeometry x="307" y="608.5" width="70" height="50" as="geometry"/>
        </mxCell>
        <mxCell id="PzeIHJAeP9Xw0wRFi0wk-67" value="" style="edgeStyle=none;rounded=0;orthogonalLoop=1;jettySize=auto;html=1;endArrow=none;endFill=0;strokeColor=#000000;entryX=0.5;entryY=1;entryDx=0;entryDy=0;" parent="1" source="PzeIHJAeP9Xw0wRFi0wk-19" target="PzeIHJAeP9Xw0wRFi0wk-16" edge="1">
          <mxGeometry relative="1" as="geometry">
            <mxPoint x="424" y="558" as="targetPoint"/>
          </mxGeometry>
        </mxCell>
        <mxCell id="PzeIHJAeP9Xw0wRFi0wk-19" value="名称" style="ellipse;whiteSpace=wrap;html=1;" parent="1" vertex="1">
          <mxGeometry x="368" y="556" width="70" height="50" as="geometry"/>
        </mxCell>
        <mxCell id="PzeIHJAeP9Xw0wRFi0wk-20" style="rounded=0;orthogonalLoop=1;jettySize=auto;html=1;strokeColor=#000000;endArrow=none;endFill=0;entryX=1;entryY=0.5;entryDx=0;entryDy=0;" parent="1" source="PzeIHJAeP9Xw0wRFi0wk-21" target="PzeIHJAeP9Xw0wRFi0wk-16" edge="1">
          <mxGeometry relative="1" as="geometry">
            <mxPoint x="498.5" y="544.5" as="targetPoint"/>
          </mxGeometry>
        </mxCell>
        <mxCell id="PzeIHJAeP9Xw0wRFi0wk-21" value="规格" style="ellipse;whiteSpace=wrap;html=1;" parent="1" vertex="1">
          <mxGeometry x="496" y="535" width="70" height="50" as="geometry"/>
        </mxCell>
        <mxCell id="PzeIHJAeP9Xw0wRFi0wk-23" style="rounded=0;orthogonalLoop=1;jettySize=auto;html=1;strokeColor=#000000;endArrow=none;endFill=0;entryX=0.75;entryY=1;entryDx=0;entryDy=0;" parent="1" source="PzeIHJAeP9Xw0wRFi0wk-24" target="PzeIHJAeP9Xw0wRFi0wk-16" edge="1">
          <mxGeometry relative="1" as="geometry">
            <mxPoint x="488.5" y="597" as="targetPoint"/>
          </mxGeometry>
        </mxCell>
        <mxCell id="PzeIHJAeP9Xw0wRFi0wk-24" value="单价" style="ellipse;whiteSpace=wrap;html=1;" parent="1" vertex="1">
          <mxGeometry x="438" y="585" width="70" height="50" as="geometry"/>
        </mxCell>
        <mxCell id="PzeIHJAeP9Xw0wRFi0wk-25" style="rounded=0;orthogonalLoop=1;jettySize=auto;html=1;strokeColor=#000000;endArrow=none;endFill=0;entryX=0;entryY=0.75;entryDx=0;entryDy=0;" parent="1" source="PzeIHJAeP9Xw0wRFi0wk-26" target="PzeIHJAeP9Xw0wRFi0wk-16" edge="1">
          <mxGeometry relative="1" as="geometry">
            <mxPoint x="258.5" y="624.5" as="targetPoint"/>
          </mxGeometry>
        </mxCell>
        <mxCell id="PzeIHJAeP9Xw0wRFi0wk-26" value="描述" style="ellipse;whiteSpace=wrap;html=1;" parent="1" vertex="1">
          <mxGeometry x="279" y="550.5" width="70" height="50" as="geometry"/>
        </mxCell>
        <mxCell id="PzeIHJAeP9Xw0wRFi0wk-61" style="edgeStyle=none;rounded=0;orthogonalLoop=1;jettySize=auto;html=1;exitX=0.5;exitY=1;exitDx=0;exitDy=0;entryX=0.5;entryY=0;entryDx=0;entryDy=0;endArrow=none;endFill=0;strokeColor=#000000;" parent="1" source="PzeIHJAeP9Xw0wRFi0wk-27" target="PzeIHJAeP9Xw0wRFi0wk-58" edge="1">
          <mxGeometry relative="1" as="geometry"/>
        </mxCell>
        <mxCell id="PzeIHJAeP9Xw0wRFi0wk-27" value="供应商" style="rounded=0;whiteSpace=wrap;html=1;" parent="1" vertex="1">
          <mxGeometry x="211" y="203" width="70" height="50" as="geometry"/>
        </mxCell>
        <mxCell id="PzeIHJAeP9Xw0wRFi0wk-28" style="rounded=0;orthogonalLoop=1;jettySize=auto;html=1;strokeColor=#000000;endArrow=none;endFill=0;" parent="1" source="PzeIHJAeP9Xw0wRFi0wk-29" target="PzeIHJAeP9Xw0wRFi0wk-27" edge="1">
          <mxGeometry relative="1" as="geometry"/>
        </mxCell>
        <mxCell id="PzeIHJAeP9Xw0wRFi0wk-29" value="供应商编号" style="ellipse;whiteSpace=wrap;html=1;" parent="1" vertex="1">
          <mxGeometry x="140" y="74" width="70" height="50" as="geometry"/>
        </mxCell>
        <mxCell id="PzeIHJAeP9Xw0wRFi0wk-30" value="姓名" style="ellipse;whiteSpace=wrap;html=1;" parent="1" vertex="1">
          <mxGeometry x="210" y="124.5" width="70" height="50" as="geometry"/>
        </mxCell>
        <mxCell id="PzeIHJAeP9Xw0wRFi0wk-31" style="rounded=0;orthogonalLoop=1;jettySize=auto;html=1;strokeColor=#000000;endArrow=none;endFill=0;entryX=1;entryY=0.5;entryDx=0;entryDy=0;" parent="1" source="PzeIHJAeP9Xw0wRFi0wk-32" target="PzeIHJAeP9Xw0wRFi0wk-27" edge="1">
          <mxGeometry relative="1" as="geometry">
            <mxPoint x="304" y="207.5" as="targetPoint"/>
          </mxGeometry>
        </mxCell>
        <mxCell id="PzeIHJAeP9Xw0wRFi0wk-32" value="地址" style="ellipse;whiteSpace=wrap;html=1;" parent="1" vertex="1">
          <mxGeometry x="298" y="115.5" width="70" height="50" as="geometry"/>
        </mxCell>
        <mxCell id="PzeIHJAeP9Xw0wRFi0wk-33" style="rounded=0;orthogonalLoop=1;jettySize=auto;html=1;strokeColor=#000000;endArrow=none;endFill=0;entryX=0.5;entryY=1;entryDx=0;entryDy=0;exitX=0.5;exitY=0;exitDx=0;exitDy=0;" parent="1" source="PzeIHJAeP9Xw0wRFi0wk-27" target="PzeIHJAeP9Xw0wRFi0wk-30" edge="1">
          <mxGeometry relative="1" as="geometry">
            <mxPoint x="284" y="200" as="targetPoint"/>
            <mxPoint x="356.50331581901605" y="179.2847669088526" as="sourcePoint"/>
          </mxGeometry>
        </mxCell>
        <mxCell id="PzeIHJAeP9Xw0wRFi0wk-34" style="rounded=0;orthogonalLoop=1;jettySize=auto;html=1;strokeColor=#000000;endArrow=none;endFill=0;entryX=0.991;entryY=0.014;entryDx=0;entryDy=0;entryPerimeter=0;" parent="1" source="PzeIHJAeP9Xw0wRFi0wk-35" target="PzeIHJAeP9Xw0wRFi0wk-27" edge="1">
          <mxGeometry relative="1" as="geometry">
            <mxPoint x="294" y="260" as="targetPoint"/>
          </mxGeometry>
        </mxCell>
        <mxCell id="PzeIHJAeP9Xw0wRFi0wk-35" value="电话号码" style="ellipse;whiteSpace=wrap;html=1;" parent="1" vertex="1">
          <mxGeometry x="264.5" y="55" width="70" height="50" as="geometry"/>
        </mxCell>
        <mxCell id="PzeIHJAeP9Xw0wRFi0wk-36" style="rounded=0;orthogonalLoop=1;jettySize=auto;html=1;strokeColor=#000000;endArrow=none;endFill=0;entryX=0;entryY=0.75;entryDx=0;entryDy=0;" parent="1" source="PzeIHJAeP9Xw0wRFi0wk-37" target="PzeIHJAeP9Xw0wRFi0wk-27" edge="1">
          <mxGeometry relative="1" as="geometry">
            <mxPoint x="64" y="287.5" as="targetPoint"/>
          </mxGeometry>
        </mxCell>
        <mxCell id="PzeIHJAeP9Xw0wRFi0wk-37" value="账号" style="ellipse;whiteSpace=wrap;html=1;" parent="1" vertex="1">
          <mxGeometry x="115" y="146" width="70" height="50" as="geometry"/>
        </mxCell>
        <mxCell id="PzeIHJAeP9Xw0wRFi0wk-38" value="项目" style="rounded=0;whiteSpace=wrap;html=1;" parent="1" vertex="1">
          <mxGeometry x="150" y="461.5" width="70" height="50" as="geometry"/>
        </mxCell>
        <mxCell id="PzeIHJAeP9Xw0wRFi0wk-39" style="rounded=0;orthogonalLoop=1;jettySize=auto;html=1;strokeColor=#000000;endArrow=none;endFill=0;" parent="1" source="PzeIHJAeP9Xw0wRFi0wk-40" target="PzeIHJAeP9Xw0wRFi0wk-38" edge="1">
          <mxGeometry relative="1" as="geometry"/>
        </mxCell>
        <mxCell id="PzeIHJAeP9Xw0wRFi0wk-40" value="项目号" style="ellipse;whiteSpace=wrap;html=1;" parent="1" vertex="1">
          <mxGeometry x="58.5" y="568" width="70" height="50" as="geometry"/>
        </mxCell>
        <mxCell id="PzeIHJAeP9Xw0wRFi0wk-41" value="预算" style="ellipse;whiteSpace=wrap;html=1;" parent="1" vertex="1">
          <mxGeometry x="134.5" y="542" width="70" height="44" as="geometry"/>
        </mxCell>
        <mxCell id="PzeIHJAeP9Xw0wRFi0wk-42" style="rounded=0;orthogonalLoop=1;jettySize=auto;html=1;strokeColor=#000000;endArrow=none;endFill=0;entryX=0.75;entryY=1;entryDx=0;entryDy=0;" parent="1" source="PzeIHJAeP9Xw0wRFi0wk-43" target="PzeIHJAeP9Xw0wRFi0wk-38" edge="1">
          <mxGeometry relative="1" as="geometry">
            <mxPoint x="225" y="541.5" as="targetPoint"/>
          </mxGeometry>
        </mxCell>
        <mxCell id="PzeIHJAeP9Xw0wRFi0wk-43" value="开工日期" style="ellipse;whiteSpace=wrap;html=1;" parent="1" vertex="1">
          <mxGeometry x="184.5" y="583" width="70" height="50" as="geometry"/>
        </mxCell>
        <mxCell id="PzeIHJAeP9Xw0wRFi0wk-44" style="rounded=0;orthogonalLoop=1;jettySize=auto;html=1;strokeColor=#000000;endArrow=none;endFill=0;exitX=0.25;exitY=1;exitDx=0;exitDy=0;entryX=0.5;entryY=0;entryDx=0;entryDy=0;" parent="1" source="PzeIHJAeP9Xw0wRFi0wk-38" target="PzeIHJAeP9Xw0wRFi0wk-41" edge="1">
          <mxGeometry relative="1" as="geometry">
            <mxPoint x="182" y="627" as="targetPoint"/>
            <mxPoint x="171" y="555" as="sourcePoint"/>
            <Array as="points"/>
          </mxGeometry>
        </mxCell>
        <mxCell id="PzeIHJAeP9Xw0wRFi0wk-88" style="edgeStyle=none;rounded=0;orthogonalLoop=1;jettySize=auto;html=1;exitX=1;exitY=0.75;exitDx=0;exitDy=0;entryX=0.5;entryY=1;entryDx=0;entryDy=0;endArrow=none;endFill=0;strokeColor=#000000;" parent="1" source="PzeIHJAeP9Xw0wRFi0wk-45" target="PzeIHJAeP9Xw0wRFi0wk-60" edge="1">
          <mxGeometry relative="1" as="geometry"/>
        </mxCell>
        <mxCell id="PzeIHJAeP9Xw0wRFi0wk-45" value="职工" style="rounded=0;whiteSpace=wrap;html=1;" parent="1" vertex="1">
          <mxGeometry x="720.5" y="385" width="70" height="50" as="geometry"/>
        </mxCell>
        <mxCell id="PzeIHJAeP9Xw0wRFi0wk-46" style="rounded=0;orthogonalLoop=1;jettySize=auto;html=1;strokeColor=#000000;endArrow=none;endFill=0;" parent="1" source="PzeIHJAeP9Xw0wRFi0wk-47" target="PzeIHJAeP9Xw0wRFi0wk-45" edge="1">
          <mxGeometry relative="1" as="geometry"/>
        </mxCell>
        <mxCell id="PzeIHJAeP9Xw0wRFi0wk-47" value="职工号" style="ellipse;whiteSpace=wrap;html=1;" parent="1" vertex="1">
          <mxGeometry x="628" y="485" width="70" height="50" as="geometry"/>
        </mxCell>
        <mxCell id="PzeIHJAeP9Xw0wRFi0wk-72" style="edgeStyle=none;rounded=0;orthogonalLoop=1;jettySize=auto;html=1;exitX=0.5;exitY=0;exitDx=0;exitDy=0;entryX=0.75;entryY=1;entryDx=0;entryDy=0;endArrow=none;endFill=0;strokeColor=#000000;" parent="1" source="PzeIHJAeP9Xw0wRFi0wk-48" target="PzeIHJAeP9Xw0wRFi0wk-45" edge="1">
          <mxGeometry relative="1" as="geometry"/>
        </mxCell>
        <mxCell id="PzeIHJAeP9Xw0wRFi0wk-48" value="姓名" style="ellipse;whiteSpace=wrap;html=1;" parent="1" vertex="1">
          <mxGeometry x="757.5" y="530.5" width="70" height="50" as="geometry"/>
        </mxCell>
        <mxCell id="PzeIHJAeP9Xw0wRFi0wk-49" style="rounded=0;orthogonalLoop=1;jettySize=auto;html=1;strokeColor=#000000;endArrow=none;endFill=0;entryX=1;entryY=0.75;entryDx=0;entryDy=0;" parent="1" source="PzeIHJAeP9Xw0wRFi0wk-50" target="PzeIHJAeP9Xw0wRFi0wk-45" edge="1">
          <mxGeometry relative="1" as="geometry">
            <mxPoint x="820.5" y="427.5" as="targetPoint"/>
          </mxGeometry>
        </mxCell>
        <mxCell id="PzeIHJAeP9Xw0wRFi0wk-50" value="年龄" style="ellipse;whiteSpace=wrap;html=1;" parent="1" vertex="1">
          <mxGeometry x="796.5" y="464" width="70" height="50" as="geometry"/>
        </mxCell>
        <mxCell id="PzeIHJAeP9Xw0wRFi0wk-52" style="rounded=0;orthogonalLoop=1;jettySize=auto;html=1;strokeColor=#000000;endArrow=none;endFill=0;entryX=0.5;entryY=1;entryDx=0;entryDy=0;" parent="1" source="PzeIHJAeP9Xw0wRFi0wk-53" target="PzeIHJAeP9Xw0wRFi0wk-45" edge="1">
          <mxGeometry relative="1" as="geometry">
            <mxPoint x="755.5" y="498.2692307692307" as="targetPoint"/>
          </mxGeometry>
        </mxCell>
        <mxCell id="PzeIHJAeP9Xw0wRFi0wk-53" value="职称" style="ellipse;whiteSpace=wrap;html=1;" parent="1" vertex="1">
          <mxGeometry x="701.5" y="488" width="70" height="50" as="geometry"/>
        </mxCell>
        <mxCell id="PzeIHJAeP9Xw0wRFi0wk-71" style="edgeStyle=none;rounded=0;orthogonalLoop=1;jettySize=auto;html=1;exitX=0;exitY=1;exitDx=0;exitDy=0;endArrow=none;endFill=0;strokeColor=#000000;" parent="1" source="PzeIHJAeP9Xw0wRFi0wk-57" target="PzeIHJAeP9Xw0wRFi0wk-16" edge="1">
          <mxGeometry relative="1" as="geometry"/>
        </mxCell>
        <mxCell id="PzeIHJAeP9Xw0wRFi0wk-80" style="edgeStyle=none;rounded=0;orthogonalLoop=1;jettySize=auto;html=1;exitX=0;exitY=0.5;exitDx=0;exitDy=0;endArrow=none;endFill=0;strokeColor=#000000;entryX=1;entryY=0.5;entryDx=0;entryDy=0;" parent="1" source="PzeIHJAeP9Xw0wRFi0wk-57" target="PzeIHJAeP9Xw0wRFi0wk-81" edge="1">
          <mxGeometry relative="1" as="geometry">
            <mxPoint x="425.11764705882365" y="309.17647058823536" as="targetPoint"/>
          </mxGeometry>
        </mxCell>
        <mxCell id="PzeIHJAeP9Xw0wRFi0wk-57" value="库存" style="rhombus;whiteSpace=wrap;html=1;" parent="1" vertex="1">
          <mxGeometry x="459.5" y="302" width="80" height="80" as="geometry"/>
        </mxCell>
        <mxCell id="PzeIHJAeP9Xw0wRFi0wk-63" style="edgeStyle=none;rounded=0;orthogonalLoop=1;jettySize=auto;html=1;exitX=0;exitY=1;exitDx=0;exitDy=0;endArrow=none;endFill=0;strokeColor=#000000;" parent="1" source="PzeIHJAeP9Xw0wRFi0wk-58" target="PzeIHJAeP9Xw0wRFi0wk-38" edge="1">
          <mxGeometry relative="1" as="geometry"/>
        </mxCell>
        <mxCell id="PzeIHJAeP9Xw0wRFi0wk-58" value="供应" style="rhombus;whiteSpace=wrap;html=1;" parent="1" vertex="1">
          <mxGeometry x="216.5" y="321" width="80" height="80" as="geometry"/>
        </mxCell>
        <mxCell id="PzeIHJAeP9Xw0wRFi0wk-89" style="edgeStyle=none;rounded=0;orthogonalLoop=1;jettySize=auto;html=1;exitX=0;exitY=0.5;exitDx=0;exitDy=0;entryX=0.75;entryY=0;entryDx=0;entryDy=0;endArrow=none;endFill=0;strokeColor=#000000;" parent="1" source="PzeIHJAeP9Xw0wRFi0wk-60" target="PzeIHJAeP9Xw0wRFi0wk-45" edge="1">
          <mxGeometry relative="1" as="geometry"/>
        </mxCell>
        <mxCell id="PzeIHJAeP9Xw0wRFi0wk-60" value="领导" style="rhombus;whiteSpace=wrap;html=1;" parent="1" vertex="1">
          <mxGeometry x="806.5" y="302" width="80" height="80" as="geometry"/>
        </mxCell>
        <mxCell id="PzeIHJAeP9Xw0wRFi0wk-64" value="n" style="text;html=1;align=center;verticalAlign=middle;resizable=0;points=[];;autosize=1;" parent="1" vertex="1">
          <mxGeometry x="210" y="286" width="16" height="18" as="geometry"/>
        </mxCell>
        <mxCell id="PzeIHJAeP9Xw0wRFi0wk-65" value="m" style="text;html=1;align=center;verticalAlign=middle;resizable=0;points=[];;autosize=1;" parent="1" vertex="1">
          <mxGeometry x="173.5" y="415" width="20" height="18" as="geometry"/>
        </mxCell>
        <mxCell id="PzeIHJAeP9Xw0wRFi0wk-69" value="n" style="text;html=1;align=center;verticalAlign=middle;resizable=0;points=[];;autosize=1;" parent="1" vertex="1">
          <mxGeometry x="297.5" y="420.5" width="16" height="18" as="geometry"/>
        </mxCell>
        <mxCell id="PzeIHJAeP9Xw0wRFi0wk-75" style="edgeStyle=none;rounded=0;orthogonalLoop=1;jettySize=auto;html=1;exitX=1;exitY=1;exitDx=0;exitDy=0;entryX=0.5;entryY=0;entryDx=0;entryDy=0;endArrow=none;endFill=0;strokeColor=#000000;" parent="1" source="PzeIHJAeP9Xw0wRFi0wk-73" target="PzeIHJAeP9Xw0wRFi0wk-45" edge="1">
          <mxGeometry relative="1" as="geometry"/>
        </mxCell>
        <mxCell id="PzeIHJAeP9Xw0wRFi0wk-73" value="工作" style="rhombus;whiteSpace=wrap;html=1;" parent="1" vertex="1">
          <mxGeometry x="627" y="271" width="80" height="80" as="geometry"/>
        </mxCell>
        <mxCell id="PzeIHJAeP9Xw0wRFi0wk-76" value="n" style="text;html=1;align=center;verticalAlign=middle;resizable=0;points=[];;autosize=1;" parent="1" vertex="1">
          <mxGeometry x="722" y="337.5" width="16" height="18" as="geometry"/>
        </mxCell>
        <mxCell id="PzeIHJAeP9Xw0wRFi0wk-77" value="1" style="text;html=1;align=center;verticalAlign=middle;resizable=0;points=[];;autosize=1;" parent="1" vertex="1">
          <mxGeometry x="619" y="250.5" width="16" height="18" as="geometry"/>
        </mxCell>
        <mxCell id="PzeIHJAeP9Xw0wRFi0wk-78" value="n" style="text;html=1;align=center;verticalAlign=middle;resizable=0;points=[];;autosize=1;" parent="1" vertex="1">
          <mxGeometry x="512.5" y="264" width="16" height="18" as="geometry"/>
        </mxCell>
        <mxCell id="PzeIHJAeP9Xw0wRFi0wk-79" value="m" style="text;html=1;align=center;verticalAlign=middle;resizable=0;points=[];;autosize=1;" parent="1" vertex="1">
          <mxGeometry x="452" y="414" width="20" height="18" as="geometry"/>
        </mxCell>
        <mxCell id="PzeIHJAeP9Xw0wRFi0wk-81" value="库存量" style="ellipse;whiteSpace=wrap;html=1;" parent="1" vertex="1">
          <mxGeometry x="345.5" y="312.5" width="70" height="50" as="geometry"/>
        </mxCell>
        <mxCell id="PzeIHJAeP9Xw0wRFi0wk-90" value="1" style="text;html=1;align=center;verticalAlign=middle;resizable=0;points=[];;autosize=1;" parent="1" vertex="1">
          <mxGeometry x="777" y="346.5" width="16" height="18" as="geometry"/>
        </mxCell>
        <mxCell id="PzeIHJAeP9Xw0wRFi0wk-91" value="&amp;nbsp;" style="text;html=1;align=center;verticalAlign=middle;resizable=0;points=[];;autosize=1;" parent="1" vertex="1">
          <mxGeometry x="864" y="422" width="13" height="18" as="geometry"/>
        </mxCell>
        <mxCell id="PzeIHJAeP9Xw0wRFi0wk-92" value="n" style="text;html=1;align=center;verticalAlign=middle;resizable=0;points=[];;autosize=1;" parent="1" vertex="1">
          <mxGeometry x="826" y="402.5" width="16" height="18" as="geometry"/>
        </mxCell>
      </root>
    </mxGraphModel>
  </diagram>
</mxfile>
